<?xml version="1.0" encoding="utf-8"?>
<!-- Generator: Adobe Illustrator 23.0.1, SVG Export Plug-In . SVG Version: 6.00 Build 0)  -->
<svg version="1.1" id="Layer_1" xmlns="http://www.w3.org/2000/svg" xmlns:xlink="http://www.w3.org/1999/xlink" x="0px" y="0px"
	 viewBox="0 0 250.9 104.5" style="enable-background:new 0 0 250.9 104.5;" xml:space="preserve">
<style type="text/css">
	.st0{fill:#D00606;}
	.st1{fill:#FFFFFF;}
</style>
<title>logo-white</title>
<path class="st0" d="M8.8,61.5h116.3v9.3H0V54.7c0,0,110.2-116.3,250.9-9.8C250.9,44.9,120.8-40.2,8.8,61.5z"/>
<path class="st1" d="M80.2,26.9h9.2v76.4h-7.7l-1.2-5.6h-0.3c-1.8,2.1-4.1,3.8-6.5,5c-2.6,1.1-5.5,1.7-8.3,1.6
	c-5.5,0-10.7-2.3-14.3-6.4c-2.1-2.4-3.7-5.1-4.7-8.1c-1.3-3.7-1.9-7.6-1.8-11.6c0-3.6,0.5-7.3,1.5-10.8c0.9-3,2.4-5.8,4.3-8.3
	c1.9-2.3,4.2-4.1,6.9-5.3c2.9-1.3,6.1-1.9,9.3-1.8c2.5,0,5,0.4,7.4,1.2c2.3,0.8,4.4,2.1,6.2,3.7V26.9z M80.2,64.9
	c-3.3-3.8-7.1-5.7-11.6-5.7c-1.9,0-3.7,0.3-5.5,1c-1.8,0.7-3.4,1.8-4.7,3.3c-1.5,1.7-2.6,3.7-3.3,5.8c-0.9,2.7-1.3,5.6-1.3,8.5
	c-0.1,3,0.3,5.9,1.2,8.8c0.6,2.1,1.7,4.1,3.1,5.9c1.2,1.5,2.7,2.6,4.4,3.4c1.6,0.7,3.3,1.1,5,1.1c5.2,0,9.5-2.3,12.8-7L80.2,64.9z"
	/>
<path class="st1" d="M167.5,65.2c0.1,5.6-0.9,11.2-2.8,16.5c-1.6,4.6-4.2,8.7-7.5,12.3c-3.1,3.3-6.9,5.9-11.1,7.6
	c-4.4,1.7-9.1,2.6-13.8,2.6s-9.3-0.8-13.7-2.4c-4.1-1.6-7.9-4-10.9-7.2c-3.2-3.4-5.7-7.4-7.3-11.7c-1.9-5.1-2.8-10.5-2.7-16
	c-0.1-5.6,0.8-11.1,2.7-16.4c1.7-4.5,4.2-8.6,7.5-12.1c3.2-3.3,7-5.8,11.2-7.5c4.4-1.7,9.1-2.6,13.8-2.6s9.3,0.7,13.7,2.3
	c4.1,1.5,7.8,3.9,10.9,7c3.2,3.3,5.7,7.3,7.3,11.6C166.7,54.3,167.6,59.7,167.5,65.2z M153.5,65.9c0.1-4.2-0.5-8.5-1.8-12.5
	c-1-3.1-2.6-6-4.8-8.4c-1.8-2.1-4.2-3.7-6.8-4.8c-2.5-1-5.1-1.5-7.7-1.5c-2.6,0-5.3,0.4-7.7,1.3c-2.6,0.9-4.9,2.4-6.7,4.4
	c-2.1,2.4-3.7,5.3-4.6,8.3c-1.3,4.3-1.9,8.7-1.7,13.2c-0.1,4.3,0.5,8.5,1.8,12.6c1,3.1,2.6,6,4.8,8.5c1.9,2.1,4.2,3.8,6.8,4.8
	c2.4,1,5.1,1.5,7.7,1.5s5.3-0.4,7.7-1.3c2.6-0.9,4.9-2.5,6.7-4.5c2.1-2.5,3.7-5.3,4.6-8.4C153,74.8,153.6,70.4,153.5,65.9
	L153.5,65.9z"/>
<ellipse class="st0" cx="133" cy="66.2" rx="4.5" ry="4.7"/>
<polygon class="st0" points="192.3,27 192.3,31.3 183.3,31.3 183.3,104.5 176.5,104.5 176.5,31.3 167.5,31.3 167.5,27 "/>
</svg>
