<svg id="Layer_1" data-name="Layer 1" xmlns="http://www.w3.org/2000/svg" viewBox="0 0 171.03 13">
  <defs>
    <style>
      .cls-1 {
        fill: #2c2c51;
      }

      .cls-2 {
        fill: #e92f60;
      }

      .cls-3 {
        fill: #0c6200;
      }
    </style>
  </defs>
  <title>section-heading</title>
  <path class="cls-1" d="M389.45,439.15c4.15.27,1,3.46,2,5-1.36,2.54.36,5.46-1,8h-2a10.51,10.51,0,0,0-7,0h-3c-1.72-.94-3.58-.47-5.37-.48-24.57,0-49.13,0-73.7,0a11.13,11.13,0,0,1-2.41-.51c-2.79-.76-5.4-1.65-5.53-5.29-.12-3.34,2-4.59,4.67-5.52.47-.16.93-.35,1.39-.53a12.23,12.23,0,0,1,1.92-.13q42.33,0,84.66,0C385.87,439.62,387.73,440.09,389.45,439.15Z" transform="translate(-220.64 -439.15)"/>
  <path class="cls-2" d="M220.64,451.13v-11c11-1.11,22.08-.22,33.12-.48a9.05,9.05,0,0,1,1.45.28c2.84.95,5.9,1.91,6,5.55s-2.85,4.78-5.74,5.71A259.66,259.66,0,0,1,220.64,451.13Z" transform="translate(-220.64 -439.15)"/>
  <path class="cls-3" d="M279.52,440.52c6.28,4.93,6.27,6.16-.09,11l-6,0c-6.68-5.15-6.68-6,0-11l5.06-.16Z" transform="translate(-220.64 -439.15)"/>
</svg>
